<svg xmlns="http://www.w3.org/2000/svg" viewBox="0 0 128 128">
  <g fill="#1f2933" transform="translate(64 64)">
    <rect x="-5" y="-62" width="10" height="18" rx="2"/>
    <rect x="-5" y="-62" width="10" height="18" rx="2" transform="rotate(30)"/>
    <rect x="-5" y="-62" width="10" height="18" rx="2" transform="rotate(60)"/>
    <rect x="-5" y="-62" width="10" height="18" rx="2" transform="rotate(90)"/>
    <rect x="-5" y="-62" width="10" height="18" rx="2" transform="rotate(120)"/>
    <rect x="-5" y="-62" width="10" height="18" rx="2" transform="rotate(150)"/>
    <rect x="-5" y="-62" width="10" height="18" rx="2" transform="rotate(180)"/>
    <rect x="-5" y="-62" width="10" height="18" rx="2" transform="rotate(210)"/>
    <rect x="-5" y="-62" width="10" height="18" rx="2" transform="rotate(240)"/>
    <rect x="-5" y="-62" width="10" height="18" rx="2" transform="rotate(270)"/>
    <rect x="-5" y="-62" width="10" height="18" rx="2" transform="rotate(300)"/>
    <rect x="-5" y="-62" width="10" height="18" rx="2" transform="rotate(330)"/>
    <circle r="50"/>
  </g>
  <circle cx="64" cy="64" r="38" fill="#f8fafc"/>
  <path fill="#1f2933" d="M39 38h31c14 0 22 8 22 19 0 8-4 14-12 17l18 21H80L64 77H54v18H39V38Zm15 12v16h16c6 0 9-3 9-8 0-6-3-8-9-8H54Z"/>
</svg>
